<?xml version="1.0" encoding="UTF-8" standalone="no"?>
<!DOCTYPE svg PUBLIC "-//W3C//DTD SVG 1.1//EN"
 "http://www.w3.org/Graphics/SVG/1.1/DTD/svg11.dtd">
<!-- Generated by graphviz version 2.38.0 (20140413.2041)
 -->
<!-- Title: l1sp Pages: 1 -->
<svg width="627pt" height="669pt"
 viewBox="0.00 0.00 627.04 669.38" xmlns="http://www.w3.org/2000/svg" xmlns:xlink="http://www.w3.org/1999/xlink">
<g id="graph0" class="graph" transform="scale(1 1) rotate(0) translate(4 665.38)">
<title>l1sp</title>
<polygon fill="white" stroke="none" points="-4,4 -4,-665.38 623.04,-665.38 623.04,4 -4,4"/>
<!-- cfgsel -->
<g id="node1" class="node"><title>cfgsel</title>
<ellipse fill="none" stroke="blue" cx="222.844" cy="-520.88" rx="113.689" ry="26.7407"/>
<text text-anchor="middle" x="222.844" y="-524.68" font-family="Times,serif" font-size="14.00">L1SP selection channels</text>
<text text-anchor="middle" x="222.844" y="-509.68" font-family="Times,serif" font-size="14.00">and tags, eg [raw], [gauss]</text>
</g>
<!-- chsel -->
<g id="node6" class="node"><title>chsel</title>
<polygon fill="none" stroke="red" points="285.844,-357.88 285.844,-441.88 473.844,-441.88 473.844,-357.88 285.844,-357.88"/>
<text text-anchor="middle" x="379.844" y="-426.68" font-family="Times,serif" font-size="14.00">frame (tags:all)</text>
<polyline fill="none" stroke="red" points="285.844,-418.88 473.844,-418.88 "/>
<text text-anchor="middle" x="379.844" y="-403.68" font-family="Times,serif" font-size="14.00">ChannelSelector (IFrameFilter)</text>
<text text-anchor="middle" x="379.844" y="-388.68" font-family="Times,serif" font-size="14.00">(pass along L1SP chans)</text>
<polyline fill="none" stroke="red" points="285.844,-380.88 473.844,-380.88 "/>
<text text-anchor="middle" x="379.844" y="-365.68" font-family="Times,serif" font-size="14.00">frame (tags:[raw], [gauss])</text>
</g>
<!-- cfgsel&#45;&gt;chsel -->
<g id="edge7" class="edge"><title>cfgsel&#45;&gt;chsel:w</title>
<path fill="none" stroke="black" stroke-dasharray="5,2" d="M234.735,-494.137C247.548,-466.728 267.541,-424.975 278.28,-407.741"/>
<polygon fill="black" stroke="black" points="281.121,-409.799 284.844,-399.88 275.748,-405.312 281.121,-409.799"/>
</g>
<!-- cfgl1sp -->
<g id="node2" class="node"><title>cfgl1sp</title>
<ellipse fill="none" stroke="blue" cx="113.844" cy="-399.88" rx="113.689" ry="37.4533"/>
<text text-anchor="middle" x="113.844" y="-411.18" font-family="Times,serif" font-size="14.00">L1SP cfg parameters,</text>
<text text-anchor="middle" x="113.844" y="-396.18" font-family="Times,serif" font-size="14.00">tags for ADC/signal traces</text>
<text text-anchor="middle" x="113.844" y="-381.18" font-family="Times,serif" font-size="14.00">smear array</text>
</g>
<!-- l1sp -->
<g id="node7" class="node"><title>l1sp</title>
<polygon fill="none" stroke="red" points="298.344,-220.69 298.344,-304.69 461.344,-304.69 461.344,-220.69 298.344,-220.69"/>
<text text-anchor="middle" x="379.844" y="-289.49" font-family="Times,serif" font-size="14.00">frame (tags:[raw], [gauss])</text>
<polyline fill="none" stroke="red" points="298.344,-281.69 461.344,-281.69 "/>
<text text-anchor="middle" x="379.844" y="-266.49" font-family="Times,serif" font-size="14.00">L1SP (IFrameFilter)</text>
<text text-anchor="middle" x="379.844" y="-251.49" font-family="Times,serif" font-size="14.00">(process raw+gauss tags)</text>
<polyline fill="none" stroke="red" points="298.344,-243.69 461.344,-243.69 "/>
<text text-anchor="middle" x="379.844" y="-228.49" font-family="Times,serif" font-size="14.00">frame (tags:[l1sp])</text>
</g>
<!-- cfgl1sp&#45;&gt;l1sp -->
<g id="edge8" class="edge"><title>cfgl1sp&#45;&gt;l1sp:w</title>
<path fill="none" stroke="black" stroke-dasharray="5,2" d="M191.294,-372.26C218.373,-360.031 247.346,-343.279 268.844,-321.38 286.085,-303.817 273.309,-273.606 286.983,-265.025"/>
<polygon fill="black" stroke="black" points="287.92,-268.4 296.844,-262.69 286.307,-261.588 287.92,-268.4"/>
</g>
<!-- cfgjoin -->
<g id="node3" class="node"><title>cfgjoin</title>
<ellipse fill="none" stroke="blue" cx="158.844" cy="-262.69" rx="81.135" ry="58.8803"/>
<text text-anchor="middle" x="158.844" y="-288.99" font-family="Times,serif" font-size="14.00">frame merge map</text>
<text text-anchor="middle" x="158.844" y="-273.99" font-family="Times,serif" font-size="14.00">f1 to f2 eg:</text>
<text text-anchor="middle" x="158.844" y="-258.99" font-family="Times,serif" font-size="14.00">[raw] to [raw]</text>
<text text-anchor="middle" x="158.844" y="-243.99" font-family="Times,serif" font-size="14.00">[l1sp] to [gauss]</text>
<text text-anchor="middle" x="158.844" y="-228.99" font-family="Times,serif" font-size="14.00">[l1sp] to [wiener]</text>
</g>
<!-- fjoin -->
<g id="node9" class="node"><title>fjoin</title>
<polygon fill="none" stroke="red" points="315.844,-83.5 315.844,-167.5 551.844,-167.5 551.844,-83.5 315.844,-83.5"/>
<text text-anchor="middle" x="380.344" y="-152.3" font-family="Times,serif" font-size="14.00">frame1 (tags: [l1sp])</text>
<polyline fill="none" stroke="red" points="444.844,-144.5 444.844,-167.5 "/>
<text text-anchor="middle" x="498.344" y="-152.3" font-family="Times,serif" font-size="14.00">frame2 (tags:all)</text>
<polyline fill="none" stroke="red" points="315.844,-144.5 551.844,-144.5 "/>
<text text-anchor="middle" x="433.844" y="-129.3" font-family="Times,serif" font-size="14.00">FrameMerger</text>
<text text-anchor="middle" x="433.844" y="-114.3" font-family="Times,serif" font-size="14.00">(replace f1 into f2)</text>
<polyline fill="none" stroke="red" points="315.844,-106.5 551.844,-106.5 "/>
<text text-anchor="middle" x="433.844" y="-91.3" font-family="Times,serif" font-size="14.00">frame (tags: all)</text>
</g>
<!-- cfgjoin&#45;&gt;fjoin -->
<g id="edge9" class="edge"><title>cfgjoin&#45;&gt;fjoin:w</title>
<path fill="none" stroke="black" stroke-dasharray="5,2" d="M190.861,-208.645C216.627,-172.87 256.442,-131.261 304.742,-126.046"/>
<polygon fill="black" stroke="black" points="305.048,-129.535 314.844,-125.5 304.67,-122.545 305.048,-129.535"/>
</g>
<!-- magsrc -->
<g id="node4" class="node"><title>magsrc</title>
<polygon fill="none" stroke="black" points="432.844,-599.88 432.844,-660.88 578.844,-660.88 578.844,-599.88 432.844,-599.88"/>
<text text-anchor="middle" x="505.844" y="-645.68" font-family="Times,serif" font-size="14.00">MagnifySource</text>
<polyline fill="none" stroke="black" points="432.844,-637.88 578.844,-637.88 "/>
<text text-anchor="middle" x="505.844" y="-622.68" font-family="Times,serif" font-size="14.00">frame with tags:</text>
<text text-anchor="middle" x="505.844" y="-607.68" font-family="Times,serif" font-size="14.00">[raw], [gauss], [wiener]</text>
</g>
<!-- fsplit -->
<g id="node5" class="node"><title>fsplit</title>
<polygon fill="none" stroke="red" points="394.844,-478.88 394.844,-562.88 616.844,-562.88 616.844,-478.88 394.844,-478.88"/>
<text text-anchor="middle" x="505.844" y="-547.68" font-family="Times,serif" font-size="14.00">frame (tags: all)</text>
<polyline fill="none" stroke="red" points="394.844,-539.88 616.844,-539.88 "/>
<text text-anchor="middle" x="505.844" y="-524.68" font-family="Times,serif" font-size="14.00">FrameSplitter (ISplitNode)</text>
<text text-anchor="middle" x="505.844" y="-509.68" font-family="Times,serif" font-size="14.00">(duplicate 1 in to 2 outs)</text>
<polyline fill="none" stroke="red" points="394.844,-501.88 616.844,-501.88 "/>
<text text-anchor="middle" x="450.344" y="-486.68" font-family="Times,serif" font-size="14.00">frame1 (tags: all)</text>
<polyline fill="none" stroke="red" points="505.844,-478.88 505.844,-501.88 "/>
<text text-anchor="middle" x="561.344" y="-486.68" font-family="Times,serif" font-size="14.00">frame2 (tags: all)</text>
</g>
<!-- magsrc&#45;&gt;fsplit -->
<g id="edge1" class="edge"><title>magsrc&#45;&gt;fsplit</title>
<path fill="none" stroke="black" d="M505.844,-599.72C505.844,-591.502 505.844,-582.337 505.844,-573.262"/>
<polygon fill="black" stroke="black" points="509.344,-573.109 505.844,-563.109 502.344,-573.109 509.344,-573.109"/>
</g>
<!-- fsplit&#45;&gt;chsel -->
<g id="edge2" class="edge"><title>fsplit:out0&#45;&gt;chsel</title>
<path fill="none" stroke="black" d="M393.844,-489.88C375.847,-489.88 371.2,-471.901 371.537,-452.104"/>
<polygon fill="black" stroke="black" points="375.039,-452.171 372.095,-441.993 368.05,-451.785 375.039,-452.171"/>
</g>
<!-- fsplit&#45;&gt;fjoin -->
<g id="edge3" class="edge"><title>fsplit:out1&#45;&gt;fjoin:in1</title>
<path fill="none" stroke="black" d="M561.844,-478.38C561.844,-338.9 689.234,-165.555 563.216,-156.842"/>
<polygon fill="black" stroke="black" points="562.954,-153.332 552.844,-156.5 562.723,-160.328 562.954,-153.332"/>
</g>
<!-- chsel&#45;&gt;l1sp -->
<g id="edge4" class="edge"><title>chsel&#45;&gt;l1sp</title>
<path fill="none" stroke="black" d="M379.844,-357.584C379.844,-344.087 379.844,-328.933 379.844,-314.803"/>
<polygon fill="black" stroke="black" points="383.344,-314.733 379.844,-304.733 376.344,-314.733 383.344,-314.733"/>
</g>
<!-- l1sp&#45;&gt;fjoin -->
<g id="edge5" class="edge"><title>l1sp&#45;&gt;fjoin:in0</title>
<path fill="none" stroke="black" d="M379.844,-220.645C379.844,-207.466 379.844,-192.573 379.844,-178.274"/>
<polygon fill="black" stroke="black" points="383.344,-178 379.844,-168 376.344,-178 383.344,-178"/>
</g>
<!-- magout -->
<g id="node8" class="node"><title>magout</title>
<polygon fill="none" stroke="black" points="389.344,-0.5 389.344,-46.5 478.344,-46.5 478.344,-0.5 389.344,-0.5"/>
<text text-anchor="middle" x="433.844" y="-31.3" font-family="Times,serif" font-size="14.00">frame</text>
<polyline fill="none" stroke="black" points="389.344,-23.5 478.344,-23.5 "/>
<text text-anchor="middle" x="433.844" y="-8.3" font-family="Times,serif" font-size="14.00">MagnifySink</text>
</g>
<!-- fjoin&#45;&gt;magout -->
<g id="edge6" class="edge"><title>fjoin:out0&#45;&gt;magout:in0</title>
<path fill="none" stroke="black" d="M433.844,-83C433.844,-71 433.844,-65.75 433.844,-57.125"/>
<polygon fill="black" stroke="black" points="437.344,-57 433.844,-47 430.344,-57 437.344,-57"/>
</g>
</g>
</svg>
