<?xml version="1.0" encoding="UTF-8" standalone="no"?>
<!DOCTYPE svg PUBLIC "-//W3C//DTD SVG 1.1//EN"
 "http://www.w3.org/Graphics/SVG/1.1/DTD/svg11.dtd">
<!-- Generated by graphviz version 2.38.0 (20140413.2041)
 -->
<!-- Title: Wire Cell Ecosystem Pages: 1 -->
<svg width="692pt" height="982pt"
 viewBox="0.00 0.00 691.50 982.17" xmlns="http://www.w3.org/2000/svg" xmlns:xlink="http://www.w3.org/1999/xlink">
<g id="graph0" class="graph" transform="scale(1 1) rotate(0) translate(4 978.168)">
<title>Wire Cell Ecosystem</title>
<g id="a_graph0"><a xlink:href="http://bnlif.github.io/wire-cell-docs/" xlink:title="Wire&#45;cell Data Flow, Components and Status">
<polygon fill="white" stroke="none" points="-4,4 -4,-978.168 687.5,-978.168 687.5,4 -4,4"/>
<text text-anchor="middle" x="341.75" y="-7.8" font-family="Times,serif" font-size="14.00">Wire&#45;cell Data Flow, Components and Status</text>
</a>
</g>
<!-- larsoft -->
<g id="node1" class="node"><title>larsoft</title>
<polygon fill="none" stroke="black" points="279,-974.168 217,-974.168 217,-938.168 279,-938.168 279,-974.168"/>
<text text-anchor="middle" x="248" y="-952.468" font-family="Times,serif" font-size="14.00">LArSoft</text>
</g>
<!-- wclmod -->
<g id="node2" class="node"><title>wclmod</title>
<polygon fill="none" stroke="red" points="499,-887.168 303,-887.168 303,-883.168 299,-883.168 299,-879.168 303,-879.168 303,-859.168 299,-859.168 299,-855.168 303,-855.168 303,-851.168 499,-851.168 499,-887.168"/>
<polyline fill="none" stroke="red" points="303,-883.168 307,-883.168 307,-879.168 303,-879.168 "/>
<polyline fill="none" stroke="red" points="303,-859.168 307,-859.168 307,-855.168 303,-855.168 "/>
<text text-anchor="middle" x="401" y="-865.468" font-family="Times,serif" font-size="14.00">Wire Cell LArSoft &#39;glue&#39; module</text>
</g>
<!-- larsoft&#45;&gt;wclmod -->
<g id="edge2" class="edge"><title>larsoft&#45;&gt;wclmod</title>
<path fill="none" stroke="red" stroke-dasharray="1,5" d="M278.962,-937.967C302.785,-924.732 335.872,-906.35 361.585,-892.065"/>
<polygon fill="red" stroke="red" points="363.304,-895.114 370.346,-887.198 359.904,-888.995 363.304,-895.114"/>
<text text-anchor="middle" x="351.5" y="-908.968" font-family="Times,serif" font-size="14.00">calls</text>
</g>
<!-- larfile -->
<g id="node3" class="node"><title>larfile</title>
<polygon fill="none" stroke="black" points="167.5,-887.168 164.5,-891.168 143.5,-891.168 140.5,-887.168 70.5,-887.168 70.5,-851.168 167.5,-851.168 167.5,-887.168"/>
<text text-anchor="middle" x="119" y="-865.468" font-family="Times,serif" font-size="14.00">Art ROOT file</text>
</g>
<!-- larsoft&#45;&gt;larfile -->
<g id="edge1" class="edge"><title>larsoft&#45;&gt;larfile</title>
<path fill="none" stroke="black" d="M221.895,-937.967C202.224,-925.006 175.063,-907.108 153.585,-892.957"/>
<polygon fill="black" stroke="black" points="155.342,-889.923 145.066,-887.343 151.491,-895.768 155.342,-889.923"/>
<text text-anchor="middle" x="209" y="-908.968" font-family="Times,serif" font-size="14.00">writes</text>
</g>
<!-- largeom -->
<g id="node5" class="node"><title>largeom</title>
<g id="a_node5"><a xlink:href="https://github.com/BNLIF/wire-cell-celltree" xlink:title="Geo dumped from larsoft\n(wire&#45;cell&#45;celltree)\n(can we directly generate w/out larsoft?)">
<polygon fill="none" stroke="darkorchid" points="433.5,-800.168 196.5,-800.168 196.5,-796.168 192.5,-796.168 192.5,-792.168 196.5,-792.168 196.5,-755.168 192.5,-755.168 192.5,-751.168 196.5,-751.168 196.5,-747.168 433.5,-747.168 433.5,-800.168"/>
<polyline fill="none" stroke="darkorchid" points="196.5,-796.168 200.5,-796.168 200.5,-792.168 196.5,-792.168 "/>
<polyline fill="none" stroke="darkorchid" points="196.5,-755.168 200.5,-755.168 200.5,-751.168 196.5,-751.168 "/>
<text text-anchor="middle" x="315" y="-784.968" font-family="Times,serif" font-size="14.00">Geo dumped from larsoft</text>
<text text-anchor="middle" x="315" y="-769.968" font-family="Times,serif" font-size="14.00">(wire&#45;cell&#45;celltree)</text>
<text text-anchor="middle" x="315" y="-754.968" font-family="Times,serif" font-size="14.00">(can we directly generate w/out larsoft?)</text>
</a>
</g>
</g>
<!-- larsoft&#45;&gt;largeom -->
<g id="edge6" class="edge"><title>larsoft&#45;&gt;largeom</title>
<path fill="none" stroke="black" d="M246.635,-937.95C245.59,-916.776 245.865,-880.089 257,-851.168 262.944,-835.729 272.998,-820.762 283.081,-808.222"/>
<polygon fill="black" stroke="black" points="285.934,-810.266 289.669,-800.351 280.566,-805.773 285.934,-810.266"/>
<text text-anchor="middle" x="275.5" y="-865.468" font-family="Times,serif" font-size="14.00">dumps</text>
</g>
<!-- lardata -->
<g id="node4" class="node"><title>lardata</title>
<g id="a_node4"><a xlink:href="https://github.com/BNLIF/wire-cell-celltree" xlink:title="MC truth+wire sig\n(wire&#45;cell&#45;celltree)">
<polygon fill="none" stroke="darkorchid" points="178.5,-792.668 59.5,-792.668 59.5,-788.668 55.5,-788.668 55.5,-784.668 59.5,-784.668 59.5,-762.668 55.5,-762.668 55.5,-758.668 59.5,-758.668 59.5,-754.668 178.5,-754.668 178.5,-792.668"/>
<polyline fill="none" stroke="darkorchid" points="59.5,-788.668 63.5,-788.668 63.5,-784.668 59.5,-784.668 "/>
<polyline fill="none" stroke="darkorchid" points="59.5,-762.668 63.5,-762.668 63.5,-758.668 59.5,-758.668 "/>
<text text-anchor="middle" x="119" y="-777.468" font-family="Times,serif" font-size="14.00">MC truth+wire sig</text>
<text text-anchor="middle" x="119" y="-762.468" font-family="Times,serif" font-size="14.00">(wire&#45;cell&#45;celltree)</text>
</a>
</g>
</g>
<!-- larfile&#45;&gt;lardata -->
<g id="edge3" class="edge"><title>larfile&#45;&gt;lardata</title>
<path fill="none" stroke="black" d="M119,-851.019C119,-837.654 119,-818.807 119,-803.182"/>
<polygon fill="black" stroke="black" points="122.5,-802.987 119,-792.987 115.5,-802.987 122.5,-802.987"/>
<text text-anchor="middle" x="133.5" y="-821.968" font-family="Times,serif" font-size="14.00">reads</text>
</g>
<!-- lard -->
<g id="node18" class="node"><title>lard</title>
<g id="a_node18"><a xlink:href="https://github.com/brettviren/lard" xlink:title="LAr Data Server\n(lard&#45;server)">
<polygon fill="none" stroke="black" points="193.5,-163 86.5,-163 86.5,-125 193.5,-125 193.5,-163"/>
<text text-anchor="middle" x="140" y="-147.8" font-family="Times,serif" font-size="14.00">LAr Data Server</text>
<text text-anchor="middle" x="140" y="-132.8" font-family="Times,serif" font-size="14.00">(lard&#45;server)</text>
</a>
</g>
</g>
<!-- larfile&#45;&gt;lard -->
<g id="edge21" class="edge"><title>larfile&#45;&gt;lard</title>
<path fill="none" stroke="red" stroke-dasharray="1,5" d="M70.2548,-851.712C37.3913,-837.184 0,-812.371 0,-774.668 0,-774.668 0,-774.668 0,-232 0,-193.122 39.4301,-171.006 76.439,-158.811"/>
<polygon fill="red" stroke="red" points="77.7506,-162.069 86.2727,-155.774 75.6852,-155.381 77.7506,-162.069"/>
<text text-anchor="middle" x="60.5" y="-494.968" font-family="Times,serif" font-size="14.00">raw data + trad. reco</text>
<text text-anchor="middle" x="60.5" y="-479.968" font-family="Times,serif" font-size="14.00">(needs implementing)</text>
</g>
<!-- celltree -->
<g id="node6" class="node"><title>celltree</title>
<polygon fill="none" stroke="black" points="195.5,-695.168 192.5,-699.168 171.5,-699.168 168.5,-695.168 76.5,-695.168 76.5,-659.168 195.5,-659.168 195.5,-695.168"/>
<text text-anchor="middle" x="136" y="-673.468" font-family="Times,serif" font-size="14.00">celltree ROOT file</text>
</g>
<!-- lardata&#45;&gt;celltree -->
<g id="edge4" class="edge"><title>lardata&#45;&gt;celltree</title>
<path fill="none" stroke="black" d="M122.278,-754.447C124.771,-740.59 128.242,-721.293 131.07,-705.576"/>
<polygon fill="black" stroke="black" points="134.578,-705.839 132.904,-695.377 127.689,-704.599 134.578,-705.839"/>
<text text-anchor="middle" x="147" y="-717.968" font-family="Times,serif" font-size="14.00">writes</text>
</g>
<!-- geomfile_ub -->
<g id="node7" class="node"><title>geomfile_ub</title>
<polygon fill="none" stroke="black" points="515,-696.168 512,-700.168 491,-700.168 488,-696.168 401,-696.168 401,-658.168 515,-658.168 515,-696.168"/>
<text text-anchor="middle" x="458" y="-680.968" font-family="Times,serif" font-size="14.00">geometry text file</text>
<text text-anchor="middle" x="458" y="-665.968" font-family="Times,serif" font-size="14.00">(uboone)</text>
</g>
<!-- largeom&#45;&gt;geomfile_ub -->
<g id="edge5" class="edge"><title>largeom&#45;&gt;geomfile_ub</title>
<path fill="none" stroke="black" d="M353.698,-747.095C374.976,-733.033 401.203,-715.701 422.034,-701.935"/>
<polygon fill="black" stroke="black" points="424.188,-704.707 430.601,-696.274 420.329,-698.867 424.188,-704.707"/>
<text text-anchor="middle" x="421" y="-717.968" font-family="Times,serif" font-size="14.00">writes</text>
</g>
<!-- geomfile_dune -->
<g id="node8" class="node"><title>geomfile_dune</title>
<polygon fill="none" stroke="black" points="383,-696.168 380,-700.168 359,-700.168 356,-696.168 237,-696.168 237,-658.168 383,-658.168 383,-696.168"/>
<text text-anchor="middle" x="310" y="-680.968" font-family="Times,serif" font-size="14.00">geometry text files</text>
<text text-anchor="middle" x="310" y="-665.968" font-family="Times,serif" font-size="14.00">(DUNE wrapped wires)</text>
</g>
<!-- largeom&#45;&gt;geomfile_dune -->
<g id="edge7" class="edge"><title>largeom&#45;&gt;geomfile_dune</title>
<path fill="none" stroke="black" d="M313.634,-746.845C312.97,-734.293 312.17,-719.182 311.49,-706.334"/>
<polygon fill="black" stroke="black" points="314.977,-705.98 310.953,-696.179 307.986,-706.35 314.977,-705.98"/>
<text text-anchor="middle" x="330" y="-717.968" font-family="Times,serif" font-size="14.00">writes</text>
</g>
<!-- sst -->
<g id="node9" class="node"><title>sst</title>
<g id="a_node9"><a xlink:href="https://github.com/BNLIF/wire-cell-sst" xlink:title="wire&#45;cell&#45;sst\nGDS, FDS, SimDS\nfor reading &#39;celltree&#39; files">
<polygon fill="none" stroke="darkorchid" points="398,-592.168 246,-592.168 246,-588.168 242,-588.168 242,-584.168 246,-584.168 246,-547.168 242,-547.168 242,-543.168 246,-543.168 246,-539.168 398,-539.168 398,-592.168"/>
<polyline fill="none" stroke="darkorchid" points="246,-588.168 250,-588.168 250,-584.168 246,-584.168 "/>
<polyline fill="none" stroke="darkorchid" points="246,-547.168 250,-547.168 250,-543.168 246,-543.168 "/>
<text text-anchor="middle" x="322" y="-576.968" font-family="Times,serif" font-size="14.00">wire&#45;cell&#45;sst</text>
<text text-anchor="middle" x="322" y="-561.968" font-family="Times,serif" font-size="14.00">GDS, FDS, SimDS</text>
<text text-anchor="middle" x="322" y="-546.968" font-family="Times,serif" font-size="14.00">for reading &#39;celltree&#39; files</text>
</a>
</g>
</g>
<!-- celltree&#45;&gt;sst -->
<g id="edge8" class="edge"><title>celltree&#45;&gt;sst</title>
<path fill="none" stroke="black" d="M165.062,-659.059C193.012,-642.604 235.895,-617.358 269.776,-597.413"/>
<polygon fill="black" stroke="black" points="271.784,-600.292 278.626,-592.203 268.233,-594.26 271.784,-600.292"/>
<text text-anchor="middle" x="232.5" y="-628.968" font-family="Times,serif" font-size="14.00">reads</text>
</g>
<!-- celltree&#45;&gt;lard -->
<g id="edge20" class="edge"><title>celltree&#45;&gt;lard</title>
<path fill="none" stroke="black" d="M136,-659.098C136,-637.556 136,-599.366 136,-566.668 136,-566.668 136,-566.668 136,-232 136,-212.527 137.012,-190.628 138.018,-173.672"/>
<polygon fill="black" stroke="black" points="141.535,-173.519 138.668,-163.319 134.549,-173.081 141.535,-173.519"/>
<text text-anchor="middle" x="150.5" y="-390.968" font-family="Times,serif" font-size="14.00">reads</text>
</g>
<!-- geomfile_ub&#45;&gt;sst -->
<g id="edge9" class="edge"><title>geomfile_ub&#45;&gt;sst</title>
<path fill="none" stroke="black" d="M435.542,-658.086C415.547,-641.987 385.827,-618.058 361.809,-598.72"/>
<polygon fill="black" stroke="black" points="363.889,-595.901 353.905,-592.356 359.499,-601.353 363.889,-595.901"/>
<text text-anchor="middle" x="425.5" y="-628.968" font-family="Times,serif" font-size="14.00">reads</text>
</g>
<!-- geomfile_dune&#45;&gt;sst -->
<g id="edge10" class="edge"><title>geomfile_dune&#45;&gt;sst</title>
<path fill="none" stroke="black" d="M311.982,-658.086C313.625,-643.088 316.014,-621.294 318.046,-602.748"/>
<polygon fill="black" stroke="black" points="321.552,-602.883 319.162,-592.561 314.594,-602.121 321.552,-602.883"/>
<text text-anchor="middle" x="330.5" y="-628.968" font-family="Times,serif" font-size="14.00">reads</text>
</g>
<!-- algs -->
<g id="node12" class="node"><title>algs</title>
<polygon fill="none" stroke="darkorchid" points="484,-458.168 204,-458.168 204,-454.168 200,-454.168 200,-450.168 204,-450.168 204,-428.168 200,-428.168 200,-424.168 204,-424.168 204,-420.168 484,-420.168 484,-458.168"/>
<polyline fill="none" stroke="darkorchid" points="204,-454.168 208,-454.168 208,-450.168 204,-450.168 "/>
<polyline fill="none" stroke="darkorchid" points="204,-428.168 208,-428.168 208,-424.168 204,-424.168 "/>
<text text-anchor="middle" x="344" y="-442.968" font-family="Times,serif" font-size="14.00">Wire Cell algorithms</text>
<text text-anchor="middle" x="344" y="-427.968" font-family="Times,serif" font-size="14.00">(various packages: 2dtoy+nav+graph+tiling+...)</text>
</g>
<!-- sst&#45;&gt;algs -->
<g id="edge11" class="edge"><title>sst&#45;&gt;algs</title>
<path fill="none" stroke="black" d="M321.9,-539.158C322.341,-521.295 323.973,-496.993 329,-476.168 329.648,-473.484 330.47,-470.741 331.395,-468.027"/>
<polygon fill="black" stroke="black" points="334.745,-469.066 335.062,-458.476 328.21,-466.557 334.745,-469.066"/>
<text text-anchor="middle" x="377.5" y="-487.468" font-family="Times,serif" font-size="14.00">provides methods</text>
</g>
<!-- params -->
<g id="node10" class="node"><title>params</title>
<ellipse fill="none" stroke="black" cx="552" cy="-956.168" rx="50.0912" ry="18"/>
<text text-anchor="middle" x="552" y="-952.468" font-family="Times,serif" font-size="14.00">parameters</text>
</g>
<!-- nav -->
<g id="node11" class="node"><title>nav</title>
<g id="a_node11"><a xlink:href="https://github.com/BNLIF/wire-cell-nav" xlink:title="wire&#45;cell&#45;nav\nnavigational data struction\nGenerative FrameDataSource (FDS+SimDS)\nParam GeomDataSource\nVarious Hit Depositors">
<polygon fill="none" stroke="darkorchid" points="683.5,-607.168 420.5,-607.168 420.5,-603.168 416.5,-603.168 416.5,-599.168 420.5,-599.168 420.5,-532.168 416.5,-532.168 416.5,-528.168 420.5,-528.168 420.5,-524.168 683.5,-524.168 683.5,-607.168"/>
<polyline fill="none" stroke="darkorchid" points="420.5,-603.168 424.5,-603.168 424.5,-599.168 420.5,-599.168 "/>
<polyline fill="none" stroke="darkorchid" points="420.5,-532.168 424.5,-532.168 424.5,-528.168 420.5,-528.168 "/>
<text text-anchor="middle" x="552" y="-591.968" font-family="Times,serif" font-size="14.00">wire&#45;cell&#45;nav</text>
<text text-anchor="middle" x="552" y="-576.968" font-family="Times,serif" font-size="14.00">navigational data struction</text>
<text text-anchor="middle" x="552" y="-561.968" font-family="Times,serif" font-size="14.00">Generative FrameDataSource (FDS+SimDS)</text>
<text text-anchor="middle" x="552" y="-546.968" font-family="Times,serif" font-size="14.00">Param GeomDataSource</text>
<text text-anchor="middle" x="552" y="-531.968" font-family="Times,serif" font-size="14.00">Various Hit Depositors</text>
</a>
</g>
</g>
<!-- params&#45;&gt;nav -->
<g id="edge12" class="edge"><title>params&#45;&gt;nav</title>
<path fill="none" stroke="black" d="M552,-937.911C552,-920.738 552,-893.631 552,-870.168 552,-870.168 552,-870.168 552,-676.168 552,-656.92 552,-635.769 552,-617.231"/>
<polygon fill="black" stroke="black" points="555.5,-617.229 552,-607.229 548.5,-617.229 555.5,-617.229"/>
<text text-anchor="middle" x="566" y="-769.968" font-family="Times,serif" font-size="14.00">input</text>
</g>
<!-- nav&#45;&gt;algs -->
<g id="edge13" class="edge"><title>nav&#45;&gt;algs</title>
<path fill="none" stroke="black" d="M478.732,-524.078C470.146,-518.413 461.71,-512.39 454,-506.168 439.807,-494.714 440.878,-486.717 426,-476.168 418.904,-471.137 410.994,-466.585 402.964,-462.544"/>
<polygon fill="black" stroke="black" points="404.415,-459.358 393.883,-458.2 401.394,-465.673 404.415,-459.358"/>
<text text-anchor="middle" x="502.5" y="-487.468" font-family="Times,serif" font-size="14.00">provides methods</text>
</g>
<!-- rootvis -->
<g id="node20" class="node"><title>rootvis</title>
<path fill="none" stroke="black" d="M603.289,-59C603.289,-59 488.711,-59 488.711,-59 482.711,-59 471.863,-55.4641 467.016,-51.9282 467.016,-51.9282 437.052,-30.0718 437.052,-30.0718 432.205,-26.5359 433.357,-23 439.357,-23 439.357,-23 652.643,-23 652.643,-23 658.643,-23 659.795,-26.5359 654.948,-30.0718 654.948,-30.0718 624.984,-51.9282 624.984,-51.9282 620.137,-55.4641 609.289,-59 603.289,-59"/>
<text text-anchor="middle" x="546" y="-37.3" font-family="Times,serif" font-size="14.00">ROOT Visualization</text>
</g>
<!-- nav&#45;&gt;rootvis -->
<g id="edge14" class="edge"><title>nav&#45;&gt;rootvis</title>
<path fill="none" stroke="black" d="M558.386,-524.128C561.673,-499.84 565,-468.311 565,-440.168 565,-440.168 565,-440.168 565,-143 565,-117.626 559.137,-89.2755 553.924,-69.0853"/>
<polygon fill="black" stroke="black" points="557.277,-68.0732 551.293,-59.33 550.518,-69.8965 557.277,-68.0732"/>
</g>
<!-- xinfile -->
<g id="node13" class="node"><title>xinfile</title>
<polygon fill="none" stroke="black" points="498.5,-354.084 495.5,-358.084 474.5,-358.084 471.5,-354.084 399.5,-354.084 399.5,-318.084 498.5,-318.084 498.5,-354.084"/>
<text text-anchor="middle" x="449" y="-332.384" font-family="Times,serif" font-size="14.00">Xin ROOT file</text>
</g>
<!-- algs&#45;&gt;xinfile -->
<g id="edge22" class="edge"><title>algs&#45;&gt;xinfile</title>
<path fill="none" stroke="black" d="M362.772,-420.096C379.701,-403.798 404.745,-379.688 423.487,-361.645"/>
<polygon fill="black" stroke="black" points="426.315,-363.781 431.091,-354.325 421.46,-358.739 426.315,-363.781"/>
<text text-anchor="middle" x="414" y="-390.968" font-family="Times,serif" font-size="14.00">writes</text>
</g>
<!-- cellio -->
<g id="node14" class="node"><title>cellio</title>
<polygon fill="red" stroke="black" points="377.716,-324.006 377.716,-348.162 316.375,-365.242 229.625,-365.242 168.284,-348.162 168.284,-324.006 229.625,-306.926 316.375,-306.926 377.716,-324.006"/>
<polygon fill="none" stroke="black" points="381.711,-320.957 381.711,-351.211 316.919,-369.252 229.081,-369.252 164.289,-351.211 164.289,-320.957 229.081,-302.916 316.919,-302.916 381.711,-320.957"/>
<text text-anchor="middle" x="273" y="-339.884" font-family="Times,serif" font-size="14.00">Reco cell I/O</text>
<text text-anchor="middle" x="273" y="-324.884" font-family="Times,serif" font-size="14.00">(needs implementing)</text>
</g>
<!-- algs&#45;&gt;cellio -->
<g id="edge15" class="edge"><title>algs&#45;&gt;cellio</title>
<path fill="none" stroke="red" stroke-dasharray="1,5" d="M303.965,-420.14C296.706,-415.247 289.897,-409.285 285,-402.168 280.324,-395.371 277.327,-387.267 275.435,-379.123"/>
<polygon fill="red" stroke="red" points="278.873,-378.466 273.636,-369.255 271.986,-379.721 278.873,-378.466"/>
<text text-anchor="middle" x="302" y="-390.968" font-family="Times,serif" font-size="14.00">writes</text>
</g>
<!-- algs&#45;&gt;rootvis -->
<g id="edge26" class="edge"><title>algs&#45;&gt;rootvis</title>
<path fill="none" stroke="black" d="M442.998,-420.123C486.117,-405.986 527,-381.002 527,-337.084 527,-337.084 527,-337.084 527,-143 527,-117.626 532.863,-89.2755 538.076,-69.0853"/>
<polygon fill="black" stroke="black" points="541.482,-69.8965 540.707,-59.33 534.723,-68.0732 541.482,-69.8965"/>
</g>
<!-- root2json -->
<g id="node16" class="node"><title>root2json</title>
<g id="a_node16"><a xlink:href="https://github.com/BNLIF/wire-cell-viz-webgl" xlink:title="Converter\n(wire&#45;cell&#45;viz&#45;webgl)">
<polygon fill="none" stroke="darkorchid" points="463,-252 331,-252 331,-248 327,-248 327,-244 331,-244 331,-222 327,-222 327,-218 331,-218 331,-214 463,-214 463,-252"/>
<polyline fill="none" stroke="darkorchid" points="331,-248 335,-248 335,-244 331,-244 "/>
<polyline fill="none" stroke="darkorchid" points="331,-222 335,-222 335,-218 331,-218 "/>
<text text-anchor="middle" x="397" y="-236.8" font-family="Times,serif" font-size="14.00">Converter</text>
<text text-anchor="middle" x="397" y="-221.8" font-family="Times,serif" font-size="14.00">(wire&#45;cell&#45;viz&#45;webgl)</text>
</a>
</g>
</g>
<!-- xinfile&#45;&gt;root2json -->
<g id="edge23" class="edge"><title>xinfile&#45;&gt;root2json</title>
<path fill="none" stroke="black" d="M440.179,-317.936C432.184,-302.395 420.267,-279.229 410.977,-261.169"/>
<polygon fill="black" stroke="black" points="414.079,-259.549 406.392,-252.258 407.855,-262.751 414.079,-259.549"/>
<text text-anchor="middle" x="437.5" y="-273.8" font-family="Times,serif" font-size="14.00">reads</text>
</g>
<!-- cellio&#45;&gt;algs -->
<g id="edge16" class="edge"><title>cellio&#45;&gt;algs</title>
<path fill="none" stroke="red" stroke-dasharray="1,5" d="M305.099,-369.365C310.044,-375.07 314.871,-381.124 319,-387.168 323.983,-394.461 328.539,-402.895 332.358,-410.778"/>
<polygon fill="red" stroke="red" points="329.253,-412.402 336.629,-420.007 335.605,-409.462 329.253,-412.402"/>
<text text-anchor="middle" x="342.5" y="-390.968" font-family="Times,serif" font-size="14.00">reads</text>
</g>
<!-- cellfile -->
<g id="node15" class="node"><title>cellfile</title>
<polygon fill="none" stroke="black" points="275.5,-251 272.5,-255 251.5,-255 248.5,-251 180.5,-251 180.5,-215 275.5,-215 275.5,-251"/>
<text text-anchor="middle" x="228" y="-229.3" font-family="Times,serif" font-size="14.00">Reco cell files</text>
</g>
<!-- cellio&#45;&gt;cellfile -->
<g id="edge17" class="edge"><title>cellio&#45;&gt;cellfile</title>
<path fill="none" stroke="red" stroke-dasharray="1,5" d="M258.638,-302.822C252.571,-289.194 245.591,-273.516 239.828,-260.569"/>
<polygon fill="red" stroke="red" points="242.957,-258.992 235.693,-251.28 236.562,-261.839 242.957,-258.992"/>
</g>
<!-- cellfile&#45;&gt;lard -->
<g id="edge18" class="edge"><title>cellfile&#45;&gt;lard</title>
<path fill="none" stroke="red" stroke-dasharray="1,5" d="M210.614,-214.812C197.732,-202.076 179.976,-184.522 165.492,-170.202"/>
<polygon fill="red" stroke="red" points="167.831,-167.593 158.259,-163.051 162.909,-172.571 167.831,-167.593"/>
<text text-anchor="middle" x="204.5" y="-184.8" font-family="Times,serif" font-size="14.00">reads</text>
</g>
<!-- json -->
<g id="node17" class="node"><title>json</title>
<polygon fill="none" stroke="black" points="403,-162 400,-166 379,-166 376,-162 327,-162 327,-126 403,-126 403,-162"/>
<text text-anchor="middle" x="365" y="-140.3" font-family="Times,serif" font-size="14.00">JSON files</text>
</g>
<!-- root2json&#45;&gt;json -->
<g id="edge24" class="edge"><title>root2json&#45;&gt;json</title>
<path fill="none" stroke="black" d="M390.37,-213.974C385.862,-201.718 379.822,-185.298 374.767,-171.553"/>
<polygon fill="black" stroke="black" points="378.032,-170.292 371.295,-162.115 371.463,-172.709 378.032,-170.292"/>
<text text-anchor="middle" x="400" y="-184.8" font-family="Times,serif" font-size="14.00">writes</text>
</g>
<!-- disp -->
<g id="node19" class="node"><title>disp</title>
<path fill="none" stroke="black" d="M279.498,-59C279.498,-59 156.502,-59 156.502,-59 150.502,-59 139.558,-55.6003 134.614,-52.2006 134.614,-52.2006 102.039,-29.7994 102.039,-29.7994 97.0947,-26.3997 98.1509,-23 104.151,-23 104.151,-23 331.849,-23 331.849,-23 337.849,-23 338.905,-26.3997 333.961,-29.7994 333.961,-29.7994 301.386,-52.2006 301.386,-52.2006 296.442,-55.6003 285.498,-59 279.498,-59"/>
<text text-anchor="middle" x="218" y="-37.3" font-family="Times,serif" font-size="14.00">WebGL Visualization</text>
</g>
<!-- json&#45;&gt;disp -->
<g id="edge25" class="edge"><title>json&#45;&gt;disp</title>
<path fill="none" stroke="black" d="M363.102,-125.718C360.56,-110.803 354.654,-89.7104 341,-77 331.896,-68.525 320.886,-62.0832 309.24,-57.1905"/>
<polygon fill="black" stroke="black" points="310.379,-53.8791 299.788,-53.5896 307.887,-60.4205 310.379,-53.8791"/>
<text text-anchor="middle" x="376" y="-88.3" font-family="Times,serif" font-size="14.00">HTTP</text>
</g>
<!-- lard&#45;&gt;disp -->
<g id="edge19" class="edge"><title>lard&#45;&gt;disp</title>
<path fill="none" stroke="red" stroke-dasharray="5,2" d="M142.936,-124.899C145.987,-110.671 151.928,-90.9846 163,-77 166.469,-72.6187 170.646,-68.6255 175.128,-65.0337"/>
<polygon fill="red" stroke="red" points="177.4,-67.7094 183.44,-59.0047 173.29,-62.043 177.4,-67.7094"/>
<text text-anchor="start" x="163" y="-95.8" font-family="Times,serif" font-size="14.00">HTTP</text>
<text text-anchor="middle" x="252" y="-80.8" font-family="Times,serif" font-size="14.00">(needs common API developed)</text>
</g>
</g>
</svg>
