<?xml version="1.0" encoding="UTF-8" standalone="no"?>
<!DOCTYPE svg PUBLIC "-//W3C//DTD SVG 1.1//EN"
 "http://www.w3.org/Graphics/SVG/1.1/DTD/svg11.dtd">
<!-- Generated by graphviz version 2.38.0 (20140413.2041)
 -->
<!-- Title: rootdata Pages: 1 -->
<svg width="927pt" height="511pt"
 viewBox="0.00 0.00 927.00 511.00" xmlns="http://www.w3.org/2000/svg" xmlns:xlink="http://www.w3.org/1999/xlink">
<g id="graph0" class="graph" transform="scale(1 1) rotate(0) translate(4 507)">
<title>rootdata</title>
<polygon fill="white" stroke="none" points="-4,4 -4,-507 923,-507 923,4 -4,4"/>
<text text-anchor="middle" x="459.5" y="-7.8" font-family="Times,serif" font-size="14.00">Wire Cell Root Data Schema</text>
<g id="clust1" class="cluster"><title>cluster_geometry</title>
<polygon fill="none" stroke="black" points="8,-122 8,-464 351,-464 351,-122 8,-122"/>
<text text-anchor="middle" x="179.5" y="-448.8" font-family="Times,serif" font-size="14.00">Geometry (one entry/file)</text>
</g>
<g id="clust3" class="cluster"><title>cluster_perframe</title>
<polygon fill="none" stroke="black" points="359,-31 359,-495 911,-495 911,-31 359,-31"/>
<text text-anchor="middle" x="635" y="-479.8" font-family="Times,serif" font-size="14.00">Per&#45;frame data</text>
</g>
<g id="clust4" class="cluster"><title>cluster_channels</title>
<polygon fill="none" stroke="black" points="683,-122 683,-464 903,-464 903,-122 683,-122"/>
<text text-anchor="middle" x="793" y="-448.8" font-family="Times,serif" font-size="14.00">Channel Data</text>
</g>
<g id="clust5" class="cluster"><title>cluster_cells</title>
<polygon fill="none" stroke="black" points="367,-39 367,-456.5 675,-456.5 675,-39 367,-39"/>
<text text-anchor="middle" x="521" y="-441.3" font-family="Times,serif" font-size="14.00">Cell Data (one entry/frame)</text>
</g>
<!-- apoint -->
<g id="node1" class="node"><title>apoint</title>
<polygon fill="none" stroke="black" points="122.5,-228.5 122.5,-304.5 193.5,-304.5 193.5,-228.5 122.5,-228.5"/>
<text text-anchor="middle" x="158" y="-289.3" font-family="Times,serif" font-size="14.00">Point</text>
<polyline fill="none" stroke="black" points="122.5,-281.5 193.5,-281.5 "/>
<text text-anchor="start" x="130.5" y="-266.3" font-family="Times,serif" font-size="14.00">+ x : float</text>
<text text-anchor="start" x="130.5" y="-251.3" font-family="Times,serif" font-size="14.00">+ y : float</text>
<text text-anchor="start" x="130.5" y="-236.3" font-family="Times,serif" font-size="14.00">+ z : float</text>
</g>
<!-- points -->
<g id="node2" class="node"><title>points</title>
<polygon fill="none" stroke="black" points="176,-130.5 176,-176.5 322,-176.5 322,-130.5 176,-130.5"/>
<text text-anchor="middle" x="249" y="-161.3" font-family="Times,serif" font-size="14.00">PointStore</text>
<polyline fill="none" stroke="black" points="176,-153.5 322,-153.5 "/>
<text text-anchor="start" x="184" y="-138.3" font-family="Times,serif" font-size="14.00">+ points : array&lt;Point&gt;</text>
</g>
<!-- apoint&#45;&gt;points -->
<g id="edge1" class="edge"><title>apoint&#45;&gt;points</title>
<path fill="none" stroke="black" d="M188.555,-228.23C199.746,-214.579 212.295,-199.272 223.046,-186.158"/>
<polygon fill="black" stroke="black" points="223.257,-185.901 223.968,-178.725 230.865,-176.621 230.154,-183.797 223.257,-185.901"/>
<text text-anchor="middle" x="221.365" y="-180.421" font-family="Times,serif" font-size="14.00"> 1 &#160;</text>
<text text-anchor="middle" x="179.555" y="-217.03" font-family="Times,serif" font-size="14.00"> N </text>
</g>
<!-- awire -->
<g id="node3" class="node"><title>awire</title>
<polygon fill="none" stroke="black" points="15.5,-228.5 15.5,-304.5 104.5,-304.5 104.5,-228.5 15.5,-228.5"/>
<text text-anchor="middle" x="60" y="-289.3" font-family="Times,serif" font-size="14.00">Wire</text>
<polyline fill="none" stroke="black" points="15.5,-281.5 104.5,-281.5 "/>
<text text-anchor="start" x="23.5" y="-266.3" font-family="Times,serif" font-size="14.00">+ chid : int</text>
<text text-anchor="start" x="23.5" y="-251.3" font-family="Times,serif" font-size="14.00">+ point1 : int</text>
<text text-anchor="start" x="23.5" y="-236.3" font-family="Times,serif" font-size="14.00">+ point2 : int</text>
</g>
<!-- awire&#45;&gt;apoint -->
<g id="edge3" class="edge"><title>awire&#45;&gt;apoint</title>
<path fill="none" stroke="black" d="M104.789,-266.5C107.244,-266.5 109.7,-266.5 112.155,-266.5"/>
<polygon fill="black" stroke="black" points="112.249,-270 122.249,-266.5 112.249,-263 112.249,-270"/>
</g>
<!-- wires -->
<g id="node4" class="node"><title>wires</title>
<polygon fill="none" stroke="black" points="16.5,-130.5 16.5,-176.5 157.5,-176.5 157.5,-130.5 16.5,-130.5"/>
<text text-anchor="middle" x="87" y="-161.3" font-family="Times,serif" font-size="14.00">WireStore</text>
<polyline fill="none" stroke="black" points="16.5,-153.5 157.5,-153.5 "/>
<text text-anchor="middle" x="87" y="-138.3" font-family="Times,serif" font-size="14.00">+ wires : array&lt;Wire&gt;</text>
</g>
<!-- awire&#45;&gt;wires -->
<g id="edge2" class="edge"><title>awire&#45;&gt;wires</title>
<path fill="none" stroke="black" d="M69.0657,-228.23C72.191,-215.382 75.6729,-201.067 78.7311,-188.494"/>
<polygon fill="black" stroke="black" points="78.7829,-188.281 76.3144,-181.505 81.6192,-176.621 84.0878,-183.396 78.7829,-188.281"/>
<text text-anchor="middle" x="74.1192" y="-180.421" font-family="Times,serif" font-size="14.00"> 1 </text>
<text text-anchor="middle" x="60.0657" y="-217.03" font-family="Times,serif" font-size="14.00"> N </text>
</g>
<!-- geomcell -->
<g id="node5" class="node"><title>geomcell</title>
<polygon fill="none" stroke="black" points="89,-356.5 89,-432.5 227,-432.5 227,-356.5 89,-356.5"/>
<text text-anchor="middle" x="158" y="-417.3" font-family="Times,serif" font-size="14.00">Cell</text>
<polyline fill="none" stroke="black" points="89,-409.5 227,-409.5 "/>
<text text-anchor="start" x="97" y="-394.3" font-family="Times,serif" font-size="14.00">+ wid : triple&lt;int&gt;</text>
<text text-anchor="start" x="97" y="-379.3" font-family="Times,serif" font-size="14.00">+ center : int</text>
<text text-anchor="start" x="97" y="-364.3" font-family="Times,serif" font-size="14.00">+ corners : array&lt;int&gt;</text>
</g>
<!-- geomcell&#45;&gt;apoint -->
<g id="edge5" class="edge"><title>geomcell&#45;&gt;apoint</title>
<path fill="none" stroke="black" d="M158,-356.377C158,-343.42 158,-328.694 158,-315.009"/>
<polygon fill="black" stroke="black" points="161.5,-314.793 158,-304.793 154.5,-314.793 161.5,-314.793"/>
<text text-anchor="middle" x="149" y="-308.593" font-family="Times,serif" font-size="14.00"> N </text>
<text text-anchor="middle" x="150.5" y="-345.177" font-family="Times,serif" font-size="14.00"> 1 </text>
</g>
<!-- geomcell&#45;&gt;awire -->
<g id="edge4" class="edge"><title>geomcell&#45;&gt;awire</title>
<path fill="none" stroke="black" d="M129.127,-356.377C118.555,-342.785 106.47,-327.247 95.3922,-313.004"/>
<polygon fill="black" stroke="black" points="97.9076,-310.537 89.0055,-304.793 92.3822,-314.835 97.9076,-310.537"/>
<text text-anchor="middle" x="81.5055" y="-308.593" font-family="Times,serif" font-size="14.00"> 3 </text>
<text text-anchor="middle" x="119.627" y="-345.177" font-family="Times,serif" font-size="14.00"> 1 &#160;</text>
</g>
<!-- tiling -->
<g id="node6" class="node"><title>tiling</title>
<polygon fill="none" stroke="black" points="211.5,-243.5 211.5,-289.5 342.5,-289.5 342.5,-243.5 211.5,-243.5"/>
<text text-anchor="middle" x="277" y="-274.3" font-family="Times,serif" font-size="14.00">TilingStore</text>
<polyline fill="none" stroke="black" points="211.5,-266.5 342.5,-266.5 "/>
<text text-anchor="start" x="219.5" y="-251.3" font-family="Times,serif" font-size="14.00">+ cells : array&lt;Cell&gt;</text>
</g>
<!-- geomcell&#45;&gt;tiling -->
<g id="edge6" class="edge"><title>geomcell&#45;&gt;tiling</title>
<path fill="none" stroke="black" d="M193.06,-356.377C210.299,-338.125 230.849,-316.365 247.302,-298.945"/>
<polygon fill="black" stroke="black" points="247.734,-298.488 248.946,-291.379 255.973,-289.763 254.762,-296.872 247.734,-298.488"/>
<text text-anchor="middle" x="244.973" y="-293.563" font-family="Times,serif" font-size="14.00">1 &#160;&#160;&#160;</text>
<text text-anchor="middle" x="184.06" y="-345.177" font-family="Times,serif" font-size="14.00"> N </text>
</g>
<!-- channelcharge -->
<g id="node7" class="node"><title>channelcharge</title>
<polygon fill="none" stroke="black" points="730.5,-356.5 730.5,-432.5 855.5,-432.5 855.5,-356.5 730.5,-356.5"/>
<text text-anchor="middle" x="793" y="-417.3" font-family="Times,serif" font-size="14.00">ChannelCharge</text>
<polyline fill="none" stroke="black" points="730.5,-409.5 855.5,-409.5 "/>
<text text-anchor="start" x="738.5" y="-394.3" font-family="Times,serif" font-size="14.00">+ chid : int</text>
<text text-anchor="start" x="738.5" y="-379.3" font-family="Times,serif" font-size="14.00">+ charge : float</text>
<text text-anchor="start" x="738.5" y="-364.3" font-family="Times,serif" font-size="14.00">+ uncertainty : float</text>
</g>
<!-- channelslice -->
<g id="node8" class="node"><title>channelslice</title>
<polygon fill="none" stroke="black" points="691,-236 691,-297 895,-297 895,-236 691,-236"/>
<text text-anchor="middle" x="793" y="-281.8" font-family="Times,serif" font-size="14.00">ChannelSlice</text>
<polyline fill="none" stroke="black" points="691,-274 895,-274 "/>
<text text-anchor="start" x="699" y="-258.8" font-family="Times,serif" font-size="14.00">+ tbin : int</text>
<text text-anchor="start" x="699" y="-243.8" font-family="Times,serif" font-size="14.00">+channels array&lt;ChannelCharge&gt;</text>
</g>
<!-- channelcharge&#45;&gt;channelslice -->
<g id="edge7" class="edge"><title>channelcharge&#45;&gt;channelslice</title>
<path fill="none" stroke="black" d="M793,-356.377C793,-341.632 793,-324.598 793,-309.412"/>
<polygon fill="black" stroke="black" points="793,-309.181 789,-303.181 793,-297.181 797,-303.181 793,-309.181"/>
<text text-anchor="middle" x="785.5" y="-300.981" font-family="Times,serif" font-size="14.00"> 1 </text>
<text text-anchor="middle" x="784" y="-345.177" font-family="Times,serif" font-size="14.00"> N </text>
</g>
<!-- channelstore -->
<g id="node9" class="node"><title>channelstore</title>
<polygon fill="none" stroke="black" points="691.5,-130.5 691.5,-176.5 894.5,-176.5 894.5,-130.5 691.5,-130.5"/>
<text text-anchor="middle" x="793" y="-161.3" font-family="Times,serif" font-size="14.00">ChannelStore</text>
<polyline fill="none" stroke="black" points="691.5,-153.5 894.5,-153.5 "/>
<text text-anchor="start" x="699.5" y="-138.3" font-family="Times,serif" font-size="14.00">+ channels : array&lt;ChannelSlice&gt;</text>
</g>
<!-- channelslice&#45;&gt;channelstore -->
<g id="edge8" class="edge"><title>channelslice&#45;&gt;channelstore</title>
<path fill="none" stroke="black" d="M793,-235.754C793,-221.35 793,-203.973 793,-188.991"/>
<polygon fill="black" stroke="black" points="793,-188.577 789,-182.577 793,-176.577 797,-182.577 793,-188.577"/>
<text text-anchor="middle" x="785.5" y="-180.377" font-family="Times,serif" font-size="14.00"> 1 </text>
<text text-anchor="middle" x="784" y="-224.554" font-family="Times,serif" font-size="14.00"> N </text>
</g>
<!-- cellcharge -->
<g id="node10" class="node"><title>cellcharge</title>
<polygon fill="none" stroke="black" points="470.5,-364 470.5,-425 571.5,-425 571.5,-364 470.5,-364"/>
<text text-anchor="middle" x="521" y="-409.8" font-family="Times,serif" font-size="14.00">CellCharge</text>
<polyline fill="none" stroke="black" points="470.5,-402 571.5,-402 "/>
<text text-anchor="start" x="478.5" y="-386.8" font-family="Times,serif" font-size="14.00">+ cellid : int</text>
<text text-anchor="start" x="478.5" y="-371.8" font-family="Times,serif" font-size="14.00">+ charge : float</text>
</g>
<!-- blob -->
<g id="node11" class="node"><title>blob</title>
<polygon fill="none" stroke="black" points="439.5,-213.5 439.5,-319.5 602.5,-319.5 602.5,-213.5 439.5,-213.5"/>
<text text-anchor="middle" x="521" y="-304.3" font-family="Times,serif" font-size="14.00">Blob</text>
<polyline fill="none" stroke="black" points="439.5,-296.5 602.5,-296.5 "/>
<text text-anchor="start" x="447.5" y="-281.3" font-family="Times,serif" font-size="14.00">+ string : technique</text>
<text text-anchor="start" x="447.5" y="-266.3" font-family="Times,serif" font-size="14.00">+ tbin : int</text>
<text text-anchor="start" x="447.5" y="-251.3" font-family="Times,serif" font-size="14.00">+ qtot : float</text>
<text text-anchor="start" x="447.5" y="-236.3" font-family="Times,serif" font-size="14.00">+ quality : vector&lt;float&gt;</text>
<text text-anchor="start" x="447.5" y="-221.3" font-family="Times,serif" font-size="14.00">+ cells array&lt;CellCharge&gt;</text>
</g>
<!-- cellcharge&#45;&gt;blob -->
<g id="edge9" class="edge"><title>cellcharge&#45;&gt;blob</title>
<path fill="none" stroke="black" d="M521,-363.959C521,-354.237 521,-343.017 521,-331.745"/>
<polygon fill="black" stroke="black" points="521,-331.56 517,-325.56 521,-319.56 525,-325.56 521,-331.56"/>
<text text-anchor="middle" x="513.5" y="-323.36" font-family="Times,serif" font-size="14.00"> 1 </text>
<text text-anchor="middle" x="512" y="-352.759" font-family="Times,serif" font-size="14.00"> N </text>
</g>
<!-- blobstore -->
<g id="node12" class="node"><title>blobstore</title>
<polygon fill="none" stroke="black" points="527,-130.5 527,-176.5 667,-176.5 667,-130.5 527,-130.5"/>
<text text-anchor="middle" x="597" y="-161.3" font-family="Times,serif" font-size="14.00">BlobStore</text>
<polyline fill="none" stroke="black" points="527,-153.5 667,-153.5 "/>
<text text-anchor="start" x="535" y="-138.3" font-family="Times,serif" font-size="14.00">+ blobs : array&lt;Blob&gt;</text>
</g>
<!-- blob&#45;&gt;blobstore -->
<g id="edge10" class="edge"><title>blob&#45;&gt;blobstore</title>
<path fill="none" stroke="black" d="M556.775,-213.25C563.001,-204.157 569.307,-194.947 575.021,-186.6"/>
<polygon fill="black" stroke="black" points="575.113,-186.466 575.202,-179.256 581.893,-176.565 581.803,-183.775 575.113,-186.466"/>
<text text-anchor="middle" x="570.893" y="-180.365" font-family="Times,serif" font-size="14.00"> 1 &#160;&#160;</text>
<text text-anchor="middle" x="547.775" y="-202.05" font-family="Times,serif" font-size="14.00"> N </text>
</g>
<!-- blobcluster -->
<g id="node13" class="node"><title>blobcluster</title>
<polygon fill="none" stroke="black" points="375.5,-130.5 375.5,-176.5 508.5,-176.5 508.5,-130.5 375.5,-130.5"/>
<text text-anchor="middle" x="442" y="-161.3" font-family="Times,serif" font-size="14.00">BlobCluster</text>
<polyline fill="none" stroke="black" points="375.5,-153.5 508.5,-153.5 "/>
<text text-anchor="start" x="383.5" y="-138.3" font-family="Times,serif" font-size="14.00">+ blobid : array&lt;int&gt;</text>
</g>
<!-- blob&#45;&gt;blobcluster -->
<g id="edge11" class="edge"><title>blob&#45;&gt;blobcluster</title>
<path fill="none" stroke="black" d="M483.813,-213.25C477.341,-204.157 470.786,-194.947 464.846,-186.6"/>
<polygon fill="none" stroke="black" points="464.662,-186.342 457.924,-183.773 457.704,-176.565 464.442,-179.134 464.662,-186.342"/>
<text text-anchor="middle" x="450.204" y="-180.365" font-family="Times,serif" font-size="14.00"> 1 </text>
<text text-anchor="middle" x="472.813" y="-202.05" font-family="Times,serif" font-size="14.00"> N &#160;</text>
</g>
<!-- blobcluster&#45;&gt;blobstore -->
<g id="edge13" class="edge"><title>blobcluster&#45;&gt;blobstore</title>
<path fill="none" stroke="black" d="M508.602,-153.5C511.366,-153.5 514.13,-153.5 516.894,-153.5"/>
<polygon fill="black" stroke="black" points="516.903,-157 526.903,-153.5 516.903,-150 516.903,-157"/>
</g>
<!-- clusterstore -->
<g id="node14" class="node"><title>clusterstore</title>
<polygon fill="none" stroke="black" points="374.5,-47.5 374.5,-93.5 533.5,-93.5 533.5,-47.5 374.5,-47.5"/>
<text text-anchor="middle" x="454" y="-78.3" font-family="Times,serif" font-size="14.00">ClusterStore</text>
<polyline fill="none" stroke="black" points="374.5,-70.5 533.5,-70.5 "/>
<text text-anchor="start" x="382.5" y="-55.3" font-family="Times,serif" font-size="14.00">+ cluster : array&lt;Cluster&gt;</text>
</g>
<!-- blobcluster&#45;&gt;clusterstore -->
<g id="edge12" class="edge"><title>blobcluster&#45;&gt;clusterstore</title>
<path fill="none" stroke="black" d="M445.279,-130.366C446.417,-122.687 447.72,-113.891 448.966,-105.48"/>
<polygon fill="black" stroke="black" points="448.966,-105.477 445.889,-98.9558 450.725,-93.6068 453.802,-100.128 448.966,-105.477"/>
<text text-anchor="middle" x="443.225" y="-97.4068" font-family="Times,serif" font-size="14.00"> 1 </text>
<text text-anchor="middle" x="436.279" y="-119.166" font-family="Times,serif" font-size="14.00"> N </text>
</g>
</g>
</svg>
