<?xml version="1.0" encoding="UTF-8" standalone="no"?>
<!DOCTYPE svg PUBLIC "-//W3C//DTD SVG 1.1//EN"
 "http://www.w3.org/Graphics/SVG/1.1/DTD/svg11.dtd">
<!-- Generated by graphviz version 2.38.0 (20140413.2041)
 -->
<!-- Title: rootdata Pages: 1 -->
<svg width="732pt" height="442pt"
 viewBox="0.00 0.00 732.00 442.00" xmlns="http://www.w3.org/2000/svg" xmlns:xlink="http://www.w3.org/1999/xlink">
<g id="graph0" class="graph" transform="scale(1 1) rotate(0) translate(4 438)">
<title>rootdata</title>
<polygon fill="white" stroke="none" points="-4,4 -4,-438 728,-438 728,4 -4,4"/>
<text text-anchor="middle" x="362" y="-7.8" font-family="Times,serif" font-size="14.00">Wire Cell Root Data Schema</text>
<g id="clust1" class="cluster"><title>cluster_wires</title>
<polygon fill="none" stroke="black" points="8,-114 8,-426 192,-426 192,-114 8,-114"/>
<text text-anchor="middle" x="100" y="-410.8" font-family="Times,serif" font-size="14.00">Wire Data (one entry/frame)</text>
</g>
<g id="clust2" class="cluster"><title>cluster_cells</title>
<polygon fill="none" stroke="black" points="200,-31 200,-426 526,-426 526,-31 200,-31"/>
<text text-anchor="middle" x="363" y="-410.8" font-family="Times,serif" font-size="14.00">Cell Data (one entry/frame)</text>
</g>
<g id="clust4" class="cluster"><title>cluster_tiling</title>
<polygon fill="none" stroke="black" points="534,-114 534,-426 716,-426 716,-114 534,-114"/>
<text text-anchor="middle" x="625" y="-410.8" font-family="Times,serif" font-size="14.00">Tiling (one entry/file)</text>
</g>
<!-- wirecharge -->
<g id="node1" class="node"><title>wirecharge</title>
<polygon fill="none" stroke="black" points="49.5,-333.5 49.5,-394.5 150.5,-394.5 150.5,-333.5 49.5,-333.5"/>
<text text-anchor="middle" x="100" y="-379.3" font-family="Times,serif" font-size="14.00">WireCharge</text>
<polyline fill="none" stroke="black" points="49.5,-371.5 150.5,-371.5 "/>
<text text-anchor="start" x="57.5" y="-356.3" font-family="Times,serif" font-size="14.00">+ wid : int</text>
<text text-anchor="start" x="57.5" y="-341.3" font-family="Times,serif" font-size="14.00">+ charge : float</text>
</g>
<!-- wireslice -->
<g id="node2" class="node"><title>wireslice</title>
<polygon fill="none" stroke="black" points="15.5,-220.5 15.5,-281.5 184.5,-281.5 184.5,-220.5 15.5,-220.5"/>
<text text-anchor="middle" x="100" y="-266.3" font-family="Times,serif" font-size="14.00">WireSlice</text>
<polyline fill="none" stroke="black" points="15.5,-258.5 184.5,-258.5 "/>
<text text-anchor="start" x="23.5" y="-243.3" font-family="Times,serif" font-size="14.00">+ tbin : int</text>
<text text-anchor="start" x="23.5" y="-228.3" font-family="Times,serif" font-size="14.00">+wires array&lt;WireCharge&gt;</text>
</g>
<!-- wirecharge&#45;&gt;wireslice -->
<g id="edge1" class="edge"><title>wirecharge&#45;&gt;wireslice</title>
<path fill="none" stroke="black" d="M100,-333.254C100,-321.185 100,-307.028 100,-293.943"/>
<polygon fill="black" stroke="black" points="100,-293.828 96,-287.828 100,-281.828 104,-287.828 100,-293.828"/>
<text text-anchor="middle" x="92.5" y="-285.628" font-family="Times,serif" font-size="14.00"> 1 </text>
<text text-anchor="middle" x="91" y="-322.054" font-family="Times,serif" font-size="14.00"> N </text>
</g>
<!-- framewires -->
<g id="node3" class="node"><title>framewires</title>
<polygon fill="none" stroke="black" points="16,-122.5 16,-168.5 184,-168.5 184,-122.5 16,-122.5"/>
<text text-anchor="middle" x="100" y="-153.3" font-family="Times,serif" font-size="14.00">FrameWires</text>
<polyline fill="none" stroke="black" points="16,-145.5 184,-145.5 "/>
<text text-anchor="start" x="24" y="-130.3" font-family="Times,serif" font-size="14.00">+ wires : array&lt;WireSlice&gt;</text>
</g>
<!-- wireslice&#45;&gt;framewires -->
<g id="edge2" class="edge"><title>wireslice&#45;&gt;framewires</title>
<path fill="none" stroke="black" d="M100,-220.341C100,-207.976 100,-193.54 100,-180.728"/>
<polygon fill="black" stroke="black" points="100,-180.594 96,-174.594 100,-168.594 104,-174.594 100,-180.594"/>
<text text-anchor="middle" x="92.5" y="-172.394" font-family="Times,serif" font-size="14.00"> 1 </text>
<text text-anchor="middle" x="91" y="-209.141" font-family="Times,serif" font-size="14.00"> N </text>
</g>
<!-- cellcharge -->
<g id="node4" class="node"><title>cellcharge</title>
<polygon fill="none" stroke="black" points="312.5,-333.5 312.5,-394.5 413.5,-394.5 413.5,-333.5 312.5,-333.5"/>
<text text-anchor="middle" x="363" y="-379.3" font-family="Times,serif" font-size="14.00">CellCharge</text>
<polyline fill="none" stroke="black" points="312.5,-371.5 413.5,-371.5 "/>
<text text-anchor="start" x="320.5" y="-356.3" font-family="Times,serif" font-size="14.00">+ cellid : int</text>
<text text-anchor="start" x="320.5" y="-341.3" font-family="Times,serif" font-size="14.00">+ charge : float</text>
</g>
<!-- blob -->
<g id="node5" class="node"><title>blob</title>
<polygon fill="none" stroke="black" points="283.5,-205.5 283.5,-296.5 442.5,-296.5 442.5,-205.5 283.5,-205.5"/>
<text text-anchor="middle" x="363" y="-281.3" font-family="Times,serif" font-size="14.00">Blob</text>
<polyline fill="none" stroke="black" points="283.5,-273.5 442.5,-273.5 "/>
<text text-anchor="start" x="291.5" y="-258.3" font-family="Times,serif" font-size="14.00">+ tbin : int</text>
<text text-anchor="start" x="291.5" y="-243.3" font-family="Times,serif" font-size="14.00">+ qtot : float</text>
<text text-anchor="start" x="291.5" y="-228.3" font-family="Times,serif" font-size="14.00">+ quality : float</text>
<text text-anchor="start" x="291.5" y="-213.3" font-family="Times,serif" font-size="14.00">+cells array&lt;CellCharge&gt;</text>
</g>
<!-- cellcharge&#45;&gt;blob -->
<g id="edge3" class="edge"><title>cellcharge&#45;&gt;blob</title>
<path fill="none" stroke="black" d="M363,-333.254C363,-325.747 363,-317.431 363,-309.068"/>
<polygon fill="black" stroke="black" points="363,-308.87 359,-302.871 363,-296.87 367,-302.87 363,-308.87"/>
<text text-anchor="middle" x="355.5" y="-300.67" font-family="Times,serif" font-size="14.00"> 1 </text>
<text text-anchor="middle" x="354" y="-322.054" font-family="Times,serif" font-size="14.00"> N </text>
</g>
<!-- frameblobs -->
<g id="node6" class="node"><title>frameblobs</title>
<polygon fill="none" stroke="black" points="378,-122.5 378,-168.5 518,-168.5 518,-122.5 378,-122.5"/>
<text text-anchor="middle" x="448" y="-153.3" font-family="Times,serif" font-size="14.00">FrameBlobs</text>
<polyline fill="none" stroke="black" points="378,-145.5 518,-145.5 "/>
<text text-anchor="start" x="386" y="-130.3" font-family="Times,serif" font-size="14.00">+ blobs : array&lt;Blob&gt;</text>
</g>
<!-- blob&#45;&gt;frameblobs -->
<g id="edge4" class="edge"><title>blob&#45;&gt;frameblobs</title>
<path fill="none" stroke="black" d="M399.788,-205.205C407.351,-195.996 415.16,-186.488 422.233,-177.876"/>
<polygon fill="black" stroke="black" points="422.237,-177.87 422.954,-170.694 429.853,-168.596 429.137,-175.772 422.237,-177.87"/>
<text text-anchor="middle" x="422.353" y="-172.396" font-family="Times,serif" font-size="14.00"> 1 </text>
<text text-anchor="middle" x="390.788" y="-194.005" font-family="Times,serif" font-size="14.00"> N </text>
</g>
<!-- blobcluster -->
<g id="node7" class="node"><title>blobcluster</title>
<polygon fill="none" stroke="black" points="208,-122.5 208,-168.5 360,-168.5 360,-122.5 208,-122.5"/>
<text text-anchor="middle" x="284" y="-153.3" font-family="Times,serif" font-size="14.00">BlobCluster</text>
<polyline fill="none" stroke="black" points="208,-145.5 360,-145.5 "/>
<text text-anchor="start" x="216" y="-130.3" font-family="Times,serif" font-size="14.00">+ blobindex : array&lt;int&gt;</text>
</g>
<!-- blob&#45;&gt;blobcluster -->
<g id="edge5" class="edge"><title>blob&#45;&gt;blobcluster</title>
<path fill="none" stroke="black" d="M328.809,-205.205C321.855,-196.095 314.678,-186.692 308.161,-178.154"/>
<polygon fill="none" stroke="black" points="308.147,-178.135 301.327,-175.793 300.866,-168.596 307.686,-170.939 308.147,-178.135"/>
<text text-anchor="middle" x="293.366" y="-172.396" font-family="Times,serif" font-size="14.00"> 1 </text>
<text text-anchor="middle" x="319.809" y="-194.005" font-family="Times,serif" font-size="14.00"> N </text>
</g>
<!-- blobcluster&#45;&gt;frameblobs -->
<g id="edge7" class="edge"><title>blobcluster&#45;&gt;frameblobs</title>
<path fill="none" stroke="black" d="M360.234,-145.5C362.693,-145.5 365.152,-145.5 367.611,-145.5"/>
<polygon fill="black" stroke="black" points="367.719,-149 377.719,-145.5 367.719,-142 367.719,-149"/>
</g>
<!-- frameclusters -->
<g id="node8" class="node"><title>frameclusters</title>
<polygon fill="none" stroke="black" points="207.5,-39.5 207.5,-85.5 366.5,-85.5 366.5,-39.5 207.5,-39.5"/>
<text text-anchor="middle" x="287" y="-70.3" font-family="Times,serif" font-size="14.00">FrameClusters</text>
<polyline fill="none" stroke="black" points="207.5,-62.5 366.5,-62.5 "/>
<text text-anchor="start" x="215.5" y="-47.3" font-family="Times,serif" font-size="14.00">+ cluster : array&lt;Cluster&gt;</text>
</g>
<!-- blobcluster&#45;&gt;frameclusters -->
<g id="edge6" class="edge"><title>blobcluster&#45;&gt;frameclusters</title>
<path fill="none" stroke="black" d="M284.82,-122.366C285.101,-114.777 285.422,-106.095 285.731,-97.7731"/>
<polygon fill="black" stroke="black" points="285.737,-97.5986 281.962,-91.4547 286.181,-85.6068 289.956,-91.7508 285.737,-97.5986"/>
<text text-anchor="middle" x="278.681" y="-89.4068" font-family="Times,serif" font-size="14.00"> 1 </text>
<text text-anchor="middle" x="275.82" y="-111.166" font-family="Times,serif" font-size="14.00"> N </text>
</g>
<!-- wirepoint -->
<g id="node9" class="node"><title>wirepoint</title>
<polygon fill="none" stroke="black" points="588.5,-333.5 588.5,-394.5 661.5,-394.5 661.5,-333.5 588.5,-333.5"/>
<text text-anchor="middle" x="625" y="-379.3" font-family="Times,serif" font-size="14.00">WirePoint</text>
<polyline fill="none" stroke="black" points="588.5,-371.5 661.5,-371.5 "/>
<text text-anchor="start" x="596.5" y="-356.3" font-family="Times,serif" font-size="14.00">+ z : float</text>
<text text-anchor="start" x="596.5" y="-341.3" font-family="Times,serif" font-size="14.00">+ y : float</text>
</g>
<!-- geomcell -->
<g id="node10" class="node"><title>geomcell</title>
<polygon fill="none" stroke="black" points="556,-213 556,-289 694,-289 694,-213 556,-213"/>
<text text-anchor="middle" x="625" y="-273.8" font-family="Times,serif" font-size="14.00">GeomCell</text>
<polyline fill="none" stroke="black" points="556,-266 694,-266 "/>
<text text-anchor="start" x="564" y="-250.8" font-family="Times,serif" font-size="14.00">+ wid : triple&lt;int&gt;</text>
<text text-anchor="start" x="564" y="-235.8" font-family="Times,serif" font-size="14.00">+ center : WirePoint</text>
<text text-anchor="start" x="564" y="-220.8" font-family="Times,serif" font-size="14.00">+ corners : array&lt;int&gt;</text>
</g>
<!-- wirepoint&#45;&gt;geomcell -->
<g id="edge8" class="edge"><title>wirepoint&#45;&gt;geomcell</title>
<path fill="none" stroke="black" d="M618.943,-333.254C618.375,-323.456 618.157,-312.282 618.286,-301.421"/>
<polygon fill="none" stroke="black" points="618.287,-301.38 614.435,-295.284 618.58,-289.384 622.432,-295.48 618.287,-301.38"/>
<text text-anchor="middle" x="611.08" y="-293.184" font-family="Times,serif" font-size="14.00"> 1 </text>
<text text-anchor="middle" x="609.943" y="-322.054" font-family="Times,serif" font-size="14.00"> N </text>
</g>
<!-- geomcell&#45;&gt;wirepoint -->
<g id="edge10" class="edge"><title>geomcell&#45;&gt;wirepoint</title>
<path fill="none" stroke="black" d="M631.42,-289.384C631.828,-300.214 631.858,-312.079 631.508,-323.06"/>
<polygon fill="black" stroke="black" points="628.003,-323.109 631.057,-333.254 634.996,-323.419 628.003,-323.109"/>
</g>
<!-- tiling -->
<g id="node11" class="node"><title>tiling</title>
<polygon fill="none" stroke="black" points="542.5,-122.5 542.5,-168.5 707.5,-168.5 707.5,-122.5 542.5,-122.5"/>
<text text-anchor="middle" x="625" y="-153.3" font-family="Times,serif" font-size="14.00">Tiling</text>
<polyline fill="none" stroke="black" points="542.5,-145.5 707.5,-145.5 "/>
<text text-anchor="start" x="550.5" y="-130.3" font-family="Times,serif" font-size="14.00">+ cells : array&lt;GeomCell&gt;</text>
</g>
<!-- geomcell&#45;&gt;tiling -->
<g id="edge9" class="edge"><title>geomcell&#45;&gt;tiling</title>
<path fill="none" stroke="black" d="M625,-212.926C625,-202.486 625,-191.176 625,-180.899"/>
<polygon fill="black" stroke="black" points="625,-180.576 621,-174.576 625,-168.576 629,-174.576 625,-180.576"/>
<text text-anchor="middle" x="617.5" y="-172.376" font-family="Times,serif" font-size="14.00"> 1 </text>
<text text-anchor="middle" x="616" y="-201.726" font-family="Times,serif" font-size="14.00"> N </text>
</g>
</g>
</svg>
